<?xml version="1.0" standalone="no"?>
<!DOCTYPE svg PUBLIC "-//W3C//DTD SVG 20010904//EN"
 "http://www.w3.org/TR/2001/REC-SVG-20010904/DTD/svg10.dtd">
<svg version="1.0" xmlns="http://www.w3.org/2000/svg"
 width="512.000000pt" height="512.000000pt" viewBox="0 0 512.000000 512.000000"
 preserveAspectRatio="xMidYMid meet">
<metadata>
Created by potrace 1.11, written by Peter Selinger 2001-2013
</metadata>
<g transform="translate(0.000000,512.000000) scale(0.100000,-0.100000)"
fill="#000000" stroke="none">
<path d="M3034 4165 c-162 -38 -304 -128 -406 -255 -159 -200 -194 -463 -94
-708 130 -322 505 -497 846 -396 215 64 394 241 468 461 22 67 26 96 26 208 1
143 -11 197 -66 313 -83 173 -248 309 -443 367 -73 22 -257 27 -331 10z m256
-100 c166 -26 340 -158 420 -320 53 -106 68 -171 65 -280 -4 -163 -58 -288
-175 -405 -127 -127 -276 -187 -445 -178 -141 8 -250 50 -358 137 -93 76 -180
217 -205 336 -16 76 -8 229 17 306 66 207 271 380 485 408 58 8 130 7 196 -4z"/>
<path d="M3060 3861 c-170 -53 -279 -202 -281 -380 -3 -305 314 -497 589 -356
47 24 133 112 163 166 110 198 26 451 -185 554 -73 36 -200 43 -286 16z m227
-106 c86 -36 154 -117 178 -213 36 -141 -30 -276 -167 -336 -46 -20 -69 -24
-130 -22 -119 4 -204 58 -259 166 -45 87 -30 230 34 313 74 98 231 139 344 92z"/>
<path d="M1156 3683 c-208 -54 -366 -260 -366 -476 0 -284 248 -516 529 -494
219 18 393 164 446 373 65 259 -90 520 -354 598 -68 20 -177 19 -255 -1z m267
-113 c344 -129 332 -616 -18 -735 -209 -72 -443 58 -501 278 -53 200 77 415
286 473 62 17 164 10 233 -16z"/>
<path d="M1220 3440 c-111 -32 -174 -118 -174 -235 0 -59 4 -78 27 -117 86
-148 280 -166 390 -37 107 125 72 298 -77 376 -33 18 -125 25 -166 13z m135
-124 c39 -25 57 -61 57 -112 0 -78 -55 -129 -136 -127 -89 2 -151 110 -108
190 35 64 127 88 187 49z"/>
<path d="M2105 3653 c-125 -26 -199 -110 -198 -223 1 -163 169 -269 315 -200
140 65 173 234 69 353 -40 45 -134 81 -186 70z m107 -143 c45 -49 50 -89 15
-141 -39 -58 -102 -75 -157 -43 -106 63 -61 223 64 224 33 0 45 -6 78 -40z"/>
<path d="M4156 3247 c-163 -60 -271 -220 -261 -387 3 -68 9 -88 41 -156 92
-190 330 -271 524 -177 203 99 279 365 158 556 -34 54 -106 121 -158 147 -87
43 -214 51 -304 17z m240 -103 c58 -27 89 -52 122 -98 103 -145 54 -345 -105
-426 -70 -36 -187 -35 -258 2 -163 86 -208 292 -95 435 76 98 229 137 336 87z"/>
<path d="M415 3121 c-70 -31 -125 -113 -125 -186 0 -146 166 -248 297 -183
151 75 151 287 0 363 -60 30 -116 32 -172 6z m114 -112 c31 -11 61 -52 61 -84
0 -25 -28 -72 -47 -80 -47 -19 -72 -16 -103 12 -53 48 -40 127 25 154 27 11
28 11 64 -2z"/>
<path d="M2130 3069 c-79 -10 -144 -36 -190 -76 -13 -13 -27 -23 -31 -23 -13
0 -72 -94 -93 -148 -18 -46 -22 -75 -21 -137 5 -171 94 -295 255 -356 83 -32
203 -24 290 17 145 70 222 201 216 368 -5 121 -63 225 -164 292 -80 54 -166
74 -262 63z m180 -145 c114 -62 159 -182 121 -321 -17 -61 -90 -137 -155 -162
-63 -23 -151 -23 -207 1 -83 36 -150 126 -162 220 -16 122 68 248 193 289 51
17 154 4 210 -27z"/>
<path d="M3506 2714 c-153 -54 -206 -245 -103 -370 101 -122 303 -105 384 33
46 79 33 198 -30 269 -61 70 -165 98 -251 68z m153 -113 c47 -25 66 -113 37
-170 -43 -81 -164 -88 -221 -13 -23 32 -27 106 -7 143 33 61 117 79 191 40z"/>
<path d="M2830 2631 c-120 -64 -132 -215 -23 -298 31 -24 46 -28 98 -28 73 0
121 27 156 89 81 144 -85 315 -231 237z m111 -94 c20 -15 39 -51 39 -73 0 -28
-48 -65 -78 -60 -15 2 -30 5 -34 5 -15 2 -39 63 -32 84 13 47 71 71 105 44z"/>
<path d="M515 2573 c-149 -15 -273 -66 -338 -138 -37 -41 -85 -122 -101 -172
-30 -90 -20 -203 22 -273 49 -79 172 -159 349 -225 124 -46 163 -83 163 -154
0 -59 -35 -117 -83 -136 -42 -17 -163 -23 -210 -10 -69 20 -74 24 -108 111
-28 75 -35 85 -53 80 -12 -3 -49 -11 -84 -17 -34 -6 -64 -14 -66 -18 -4 -6 10
-116 37 -291 4 -22 12 -27 80 -41 50 -11 127 -17 219 -17 246 -1 376 40 480
151 96 103 132 283 80 399 -42 96 -122 151 -338 233 -62 23 -128 51 -146 62
-86 50 -79 184 12 238 29 16 52 20 125 19 98 0 132 -12 140 -47 20 -94 32
-132 40 -130 6 0 28 4 50 7 22 3 57 9 78 12 l39 6 -6 52 c-3 28 -8 85 -11 127
-4 41 -8 84 -10 95 -2 10 -4 26 -4 35 -1 9 -7 16 -13 17 -7 1 -35 6 -63 12
-50 11 -222 19 -280 13z"/>
<path d="M1155 2561 c-135 -61 -151 -239 -30 -323 121 -84 289 5 288 153 0
133 -139 224 -258 170z"/>
<path d="M4793 2554 c-70 -35 -97 -82 -98 -166 0 -59 3 -70 31 -105 44 -53 84
-74 146 -75 147 -3 238 150 164 276 -51 88 -151 117 -243 70z"/>
<path d="M3250 2126 c-96 -23 -180 -44 -186 -48 -6 -4 -17 -36 -23 -70 -7 -35
-14 -70 -17 -79 -4 -14 4 -15 56 -12 l60 4 0 -181 0 -180 -47 -30 c-84 -54
-150 -59 -180 -14 -13 20 -15 70 -15 319 -1 163 -4 297 -7 299 -3 1 -67 -10
-141 -25 -74 -15 -147 -28 -162 -28 -25 -1 -28 -6 -43 -78 -9 -43 -18 -83 -20
-89 -2 -6 16 -9 49 -6 l52 3 -1 -208 c0 -114 3 -228 7 -253 27 -149 142 -212
301 -164 58 17 171 76 183 95 13 22 23 4 26 -48 l3 -57 175 -1 c96 0 180 1
186 2 6 2 10 36 10 86 l-1 82 -40 0 -40 0 -2 358 c0 197 -3 360 -5 361 -1 1
-82 -16 -178 -38z"/>
<path d="M1728 2116 c-98 -23 -181 -45 -187 -51 -5 -5 -14 -35 -20 -65 -7 -30
-14 -64 -17 -75 -5 -19 -1 -20 56 -17 53 3 60 2 61 -15 0 -24 0 -697 0 -750
l-1 -43 -40 0 c-22 0 -40 -4 -41 -10 0 -5 -1 -30 -1 -55 0 -25 1 -58 1 -75 l1
-30 229 0 229 0 0 85 0 85 -42 0 -42 0 -1 115 0 114 26 -18 c74 -53 201 -66
297 -30 114 43 184 151 208 325 32 234 -6 437 -94 503 -36 26 -102 41 -157 35
-23 -2 -86 -20 -140 -40 -149 -55 -145 -54 -140 -6 2 23 1 45 -2 49 -3 5 -86
-9 -183 -31z m405 -185 c35 -14 51 -68 51 -176 0 -173 -22 -266 -72 -305 -48
-39 -162 -18 -181 33 -5 12 -8 108 -8 212 1 213 -3 205 81 231 50 15 96 17
129 5z"/>
<path d="M1211 2107 c-211 -48 -193 -33 -217 -179 l-6 -36 43 4 c24 3 51 7 60
8 15 3 16 -21 15 -238 l-1 -241 -41 1 -40 1 -2 -83 c-2 -62 1 -84 10 -85 7 0
111 -1 230 -2 l217 -2 3 65 c5 104 2 111 -38 107 -19 -3 -37 0 -41 6 -4 6 -6
170 -6 364 0 194 0 353 -1 352 0 0 -84 -19 -185 -42z"/>
<path d="M4235 2140 c-61 -12 -145 -46 -208 -84 -61 -37 -61 -37 -58 29 1 54
1 54 -136 23 -70 -16 -132 -31 -138 -32 -5 -2 -31 -6 -56 -10 l-45 -8 -20 -84
c-13 -54 -16 -84 -10 -85 6 0 34 0 62 1 l50 1 -1 -237 0 -238 -43 1 -42 1 0
-84 0 -84 230 0 230 0 0 86 c0 75 -2 85 -17 83 -10 -1 -29 -1 -43 0 l-25 1 1
209 c1 115 4 215 6 223 8 20 112 70 156 75 28 3 45 -1 63 -15 l24 -20 0 -233
0 -233 -40 0 -40 -1 0 -82 c0 -67 3 -83 15 -84 20 -1 377 -1 416 0 l30 1 -2
78 c-1 42 -2 80 -3 84 0 3 -18 6 -38 5 l-38 -2 -5 285 c-3 179 -10 295 -17
311 -16 37 -61 88 -93 104 -35 18 -112 25 -165 15z"/>
<path d="M5007 2143 c-4 -4 -317 -75 -334 -76 -15 0 -52 -160 -39 -169 6 -4
13 -5 16 -3 3 2 25 5 50 6 l45 4 1 -230 c0 -127 -1 -235 -3 -241 -2 -6 -22 -9
-43 -8 l-40 2 0 -84 0 -84 28 -1 c35 -1 403 -1 420 0 8 1 12 25 12 85 l0 84
-39 -2 c-29 -2 -41 2 -43 13 -2 9 -3 172 -3 362 1 275 -2 346 -12 346 -7 0
-15 -2 -16 -4z"/>
</g>
</svg>
