<?xml version="1.0" encoding="UTF-8" standalone="no"?><!DOCTYPE svg PUBLIC "-//W3C//DTD SVG 1.1//EN" "http://www.w3.org/Graphics/SVG/1.1/DTD/svg11.dtd"><svg width="100%" height="100%" viewBox="0 0 230 146" version="1.1" xmlns="http://www.w3.org/2000/svg" xmlns:xlink="http://www.w3.org/1999/xlink" xml:space="preserve" xmlns:serif="http://www.serif.com/" style="fill-rule:evenodd;clip-rule:evenodd;stroke-linejoin:round;stroke-miterlimit:1.41421;"><path d="M56.25,66.667c-12.083,0 -22.083,-10 -22.083,-22.084c0,-12.083 10,-22.083 22.083,-22.083c12.083,0 22.083,10 22.083,22.083c0,12.5 -10,22.084 -22.083,22.084Zm0,-39.584c-9.583,0 -17.5,7.917 -17.5,17.5c0,9.584 7.917,17.5 17.5,17.5c9.583,0 17.5,-7.916 17.5,-17.5c0,-9.583 -7.917,-17.5 -17.5,-17.5Z" style="fill:#79b852;fill-rule:nonzero;"/><path d="M95.833,84.583c-9.583,0 -17.083,-7.5 -17.083,-17.083c0,-9.583 7.5,-17.083 17.083,-17.083c9.584,0 17.084,7.5 17.084,17.083c0,9.583 -7.5,17.083 -17.084,17.083Zm0,-29.166c-6.666,0 -12.083,5.416 -12.083,12.083c0,6.667 5.417,12.083 12.083,12.083c6.667,0 12.084,-5.416 12.084,-12.083c0.416,-6.667 -5.417,-12.083 -12.084,-12.083Z" style="fill:#edc832;fill-rule:nonzero;"/><path d="M56.25,55.417c-5.833,0 -10.833,-4.584 -10.833,-10.834c0,-5.833 4.583,-10.833 10.833,-10.833c5.833,0 10.833,4.583 10.833,10.833c-0.416,5.834 -5,10.834 -10.833,10.834Zm0,-16.667c-3.333,0 -5.833,2.5 -5.833,5.833c0,3.334 2.5,5.834 5.833,5.834c3.333,0 5.833,-2.5 5.833,-5.834c0,-3.333 -2.5,-5.833 -5.833,-5.833Z" style="fill:#edc832;fill-rule:nonzero;"/><path d="M140.417,63.75c-17.5,0 -31.25,-14.167 -31.25,-31.25c0,-17.083 14.166,-31.25 31.25,-31.25c17.5,0 31.25,14.167 31.25,31.25c0,17.083 -14.167,31.25 -31.25,31.25Zm0,-57.917c-14.584,0 -26.667,12.084 -26.667,26.667c0,14.583 12.083,26.667 26.667,26.667c14.583,0 26.666,-12.084 26.666,-26.667c0,-14.583 -12.083,-26.667 -26.666,-26.667Z" style="fill:#00a2e2;fill-rule:nonzero;"/><path d="M21.25,65.833c-5,0 -9.167,-4.166 -9.167,-9.166c0,-5 4.167,-9.167 9.167,-9.167c5,0 9.167,4.167 9.167,9.167c-0.417,5.416 -4.167,9.166 -9.167,9.166Zm0,-12.916c-2.5,0 -4.167,2.083 -4.167,4.166c0,2.5 2.084,4.167 4.167,4.167c2.5,0 4.167,-2.083 4.167,-4.167c0,-2.5 -2.084,-4.166 -4.167,-4.166Z" style="fill:#00a2e2;fill-rule:nonzero;"/><path d="M189.583,76.667c-9.583,0 -17.5,-7.917 -17.5,-17.5c0,-9.584 7.917,-17.5 17.5,-17.5c9.584,0 17.5,7.916 17.5,17.5c0,9.583 -7.5,17.5 -17.5,17.5Zm0,-30.417c-7.083,0 -12.916,5.833 -12.916,12.917c0,7.083 5.833,12.916 12.916,12.916c7.084,0 12.917,-5.833 12.917,-12.916c0,-7.084 -5.833,-12.917 -12.917,-12.917Z" style="fill:#79b852;fill-rule:nonzero;"/><path d="M140.417,50.417c-10,0 -17.917,-7.917 -17.917,-17.917c0,-10 7.917,-17.917 17.917,-17.917c9.583,-0.416 17.916,7.917 17.916,17.917c0,9.583 -8.333,17.917 -17.916,17.917Zm0,-31.25c-7.5,0 -13.334,5.833 -13.334,13.333c0,7.5 5.834,13.333 13.334,13.333c7.5,0 13.333,-5.833 13.333,-13.333c-0.417,-7.5 -6.25,-13.333 -13.333,-13.333Z" style="fill:#e27755;fill-rule:nonzero;"/><path d="M93.75,44.583c-5.417,0 -10,-4.583 -10,-10c0,-5.416 4.583,-10 10,-10c5.417,0 10,4.584 10,10c0,5.417 -4.583,10 -10,10Zm0,-15.416c-2.917,0 -5.417,2.5 -5.417,5.416c0,2.917 2.5,5.417 5.417,5.417c2.917,0 5.417,-2.5 5.417,-5.417c0,-2.916 -2.5,-5.416 -5.417,-5.416Z" style="fill:#e27755;fill-rule:nonzero;"/><path d="M128.333,85c-4.166,0 -7.916,-3.75 -7.916,-7.917c0,-4.166 3.75,-7.916 7.916,-7.916c4.167,0 7.917,3.75 7.917,7.916c0,4.167 -3.75,7.917 -7.917,7.917Zm0,-11.25c-1.666,0 -3.333,1.25 -3.333,3.333c0,1.667 1.25,3.334 3.333,3.334c1.667,0 3.334,-1.25 3.334,-3.334c-0.417,-1.666 -1.667,-3.333 -3.334,-3.333Z" style="fill:#e27755;fill-rule:nonzero;"/><path d="M158.333,86.667c-5.833,0 -10.416,-4.584 -10.416,-10.417c0,-5.833 4.583,-10.417 10.416,-10.417c5.834,0 10.417,4.584 10.417,10.417c0.417,5.833 -4.583,10.417 -10.417,10.417Zm0,-16.25c-3.333,0 -5.833,2.5 -5.833,5.833c0,3.333 2.5,5.833 5.833,5.833c3.334,0 5.834,-2.5 5.834,-5.833c0,-3.333 -2.5,-5.833 -5.834,-5.833Z" style="fill:#edc832;fill-rule:nonzero;"/><path d="M9.583,120c0,0.417 0.417,0.833 0.417,0.833c1.667,1.25 5.833,1.667 7.917,1.667c2.083,0 4.583,-0.417 6.25,-1.667c1.25,-1.25 2.083,-2.5 2.083,-5c0,-4.583 -2.083,-5.416 -9.167,-7.916c-8.75,-3.334 -15.416,-7.5 -15.416,-16.25c0,-5.417 2.5,-10 5.833,-13.334c3.75,-3.75 10.417,-5.833 18.75,-5.833c5,0 9.583,0.833 11.667,1.667c0.416,5.416 0.833,8.75 1.25,14.166c-2.5,0.417 -4.584,0.834 -7.917,1.25l-1.25,-6.25c0,-0.416 0,-0.416 -0.417,-0.833c-1.25,-0.833 -5,-1.25 -6.666,-1.25c-2.084,0 -3.75,0.417 -5.417,1.667c-1.25,0.833 -2.5,2.5 -2.5,5c0,4.583 2.083,5.416 10.417,8.333c9.583,3.333 15,7.083 15,15.417c0,5.416 -2.5,10.833 -6.667,14.166c-4.167,3.334 -10,5 -18.75,5c-3.75,0 -10,-0.416 -13.75,-1.666c-0.833,-5.417 -1.25,-8.75 -2.083,-14.167c2.916,-0.417 5,-1.25 7.916,-1.667l2.5,6.667Z" style="fill:#fff;fill-rule:nonzero;"/><path d="M42.917,102.917l1.666,-7.5l16.667,-3.75l0,32.083l3.75,0l0,7.5l-20.417,0l0,-7.5l3.75,0l0,-21.25l-5.416,0.417Z" style="fill:#fff;fill-rule:nonzero;"/><path d="M204.583,102.917l1.667,-7.5l16.667,-3.75l0,32.083l3.75,0l0,7.5l-20.417,0l0,-7.5l3.75,0l0,-21.25l-5.417,0.417Z" style="fill:#fff;fill-rule:nonzero;"/><path d="M98.333,91.667c7.5,0 10,7.083 10,17.083c0,5 -0.416,13.75 -5.416,18.75c-1.667,1.667 -4.584,3.75 -9.584,3.75c-6.25,0 -9.166,-3.333 -9.166,-3.333l0,10.416l3.75,0l0,7.5l-20.417,0l0,-7.5l3.75,0l0,-36.25l-5.417,0.417l1.667,-7.5l16.667,-3.75l0,4.583c0.416,0.417 8.333,-4.166 14.166,-4.166Zm-2.916,10.833c-0.834,-1.25 -1.667,-1.667 -3.334,-1.667c-1.666,0 -5.833,0.834 -7.5,2.5c0,5 0,16.667 0,16.667c0,0 0,3.75 5.417,3.75c1.667,0 3.333,-0.417 4.167,-2.083c1.25,-2.084 2.083,-5.834 2.083,-10.417c0.417,-4.167 -0.417,-7.917 -0.833,-8.75Z" style="fill:#fff;fill-rule:nonzero;"/><path d="M125,130.833c-6.25,0 -9.167,-5 -9.167,-10.416c0,-6.667 0,-12.917 0,-18.334l-4.583,0.417l1.667,-7.5l15,-2.917c0,0 0,23.334 0,25.417c0,2.5 1.25,3.75 3.75,3.75c1.666,0 7.083,-2.917 7.083,-3.75c0,-6.25 0,-15.833 0,-15.833l-5.417,0.416l1.667,-7.5l16.667,-3.75l0,32.084l3.75,0l0,7.5l-16.667,0l0,-5.417c-0.417,0.417 -7.083,5.833 -13.75,5.833Z" style="fill:#fff;fill-rule:nonzero;"/><path d="M190.417,91.667c6.25,0 9.166,5 9.166,10.416c0,6.667 0,15.834 0,21.667l3.75,0l0,7.5l-20.416,0l0,-7.5l3.75,0c0,0 0,-17.5 0,-18.75c0,-2.5 -1.25,-3.75 -3.75,-3.75c-1.667,0 -7.5,2.917 -7.5,3.75c0,6.25 0,19.167 0,19.167l3.75,0l0,7.5l-20.417,0l0,-7.5l3.75,0l0,-21.25l-5.417,0.416l1.667,-7.5l16.667,-3.75l0,5.417c0,-0.417 8.333,-5.833 15,-5.833Z" style="fill:#fff;fill-rule:nonzero;"/><circle cx="53.75" cy="80.833" r="8.333" style="fill:#e27755;"/><circle cx="215.833" cy="80.833" r="8.333" style="fill:#00a2e2;"/></svg>